<?xml version="1.0" encoding="utf-8"?>
<!-- Generator: Adobe Illustrator 21.1.0, SVG Export Plug-In . SVG Version: 6.00 Build 0)  -->
<svg version="1.1" id="Layer_1" xmlns="http://www.w3.org/2000/svg" xmlns:xlink="http://www.w3.org/1999/xlink" x="0px" y="0px"
	 viewBox="0 0 170 34" style="enable-background:new 0 0 170 34;" xml:space="preserve">
<style type="text/css">
	.st0{fill:#3B5998;}
	.st1{fill:#FFFFFF;}
</style>
<rect class="st0" width="170" height="34"/>
<g>
	<path class="st1" d="M33.9,17.7c0,0.5,0.1,1,0.4,1.3c0.4,0.6,1.1,0.9,2.1,0.9c0.5,0,0.9-0.1,1.2-0.2c0.7-0.3,1.1-0.7,1.1-1.4
		c0-0.5-0.2-0.9-0.5-1.1s-0.8-0.4-1.5-0.6l-1.1-0.2c-0.8-0.2-1.4-0.4-1.7-0.6c-0.6-0.4-0.9-1-0.9-1.7c0-0.8,0.3-1.5,0.8-2.1
		s1.4-0.8,2.4-0.8s1.8,0.2,2.4,0.7c0.7,0.5,1,1.2,1,2.3h-1.2c-0.1-0.5-0.2-0.9-0.4-1.1c-0.4-0.5-1-0.7-1.9-0.7
		c-0.7,0-1.2,0.2-1.5,0.5S34,13.6,34,14c0,0.5,0.2,0.8,0.6,1c0.2,0.1,0.8,0.3,1.6,0.5l1.3,0.3c0.6,0.1,1.1,0.3,1.4,0.6
		c0.6,0.4,0.9,1.1,0.9,1.9c0,1-0.4,1.8-1.1,2.2c-0.7,0.4-1.6,0.7-2.6,0.7c-1.1,0-2-0.3-2.7-0.9c-0.6-0.6-1-1.4-0.9-2.4h1.3V17.7z"/>
	<path class="st1" d="M41.6,11.4h1.2v1.3h-1.2V11.4z M41.6,14h1.2v6.8h-1.2V14z"/>
	<path class="st1" d="M48.3,14.2c0.2,0.1,0.4,0.4,0.7,0.6V14h1.1v6.2c0,0.9-0.1,1.5-0.4,2c-0.5,0.9-1.4,1.4-2.7,1.4
		c-0.7,0-1.3-0.2-1.8-0.5s-0.8-0.8-0.8-1.5h1.2c0.1,0.3,0.2,0.5,0.3,0.7c0.3,0.3,0.7,0.4,1.2,0.4c0.9,0,1.4-0.3,1.7-0.9
		c0.2-0.4,0.2-1,0.2-1.9c-0.2,0.3-0.5,0.6-0.8,0.8c-0.3,0.2-0.7,0.3-1.3,0.3c-0.7,0-1.4-0.3-1.9-0.8c-0.6-0.5-0.8-1.4-0.8-2.6
		c0-1.1,0.3-2,0.8-2.7s1.2-1,2-1C47.4,13.8,47.9,13.9,48.3,14.2z M48.4,15.4c-0.3-0.4-0.8-0.6-1.3-0.6c-0.8,0-1.3,0.4-1.6,1.1
		c-0.2,0.4-0.2,0.9-0.2,1.6c0,0.8,0.2,1.3,0.5,1.7c0.3,0.4,0.7,0.6,1.2,0.6c0.8,0,1.4-0.4,1.7-1.1c0.2-0.4,0.3-0.9,0.3-1.5
		C48.9,16.5,48.8,15.8,48.4,15.4z"/>
	<path class="st1" d="M51.7,13.9h1.1v1c0.3-0.4,0.7-0.7,1-0.9s0.8-0.3,1.2-0.3c1,0,1.6,0.3,2,1c0.2,0.4,0.3,0.9,0.3,1.6v4.4H56v-4.3
		c0-0.4-0.1-0.7-0.2-1c-0.2-0.4-0.6-0.6-1.1-0.6c-0.3,0-0.5,0-0.7,0.1c-0.3,0.1-0.6,0.3-0.8,0.6C53,15.7,53,16,52.8,16.2
		c-0.1,0.2-0.1,0.6-0.1,1v3.6h-1.1V13.9z"/>
	<path class="st1" d="M62.6,11.4h1.2v1.3h-1.2V11.4z M62.6,14h1.2v6.8h-1.2V14z"/>
	<path class="st1" d="M65.5,13.9h1.1v1c0.3-0.4,0.7-0.7,1-0.9s0.8-0.3,1.2-0.3c1,0,1.6,0.3,2,1c0.2,0.4,0.3,0.9,0.3,1.6v4.4h-1.2
		v-4.3c0-0.4-0.1-0.7-0.2-1c-0.2-0.4-0.6-0.6-1.1-0.6c-0.3,0-0.5,0-0.7,0.1c-0.3,0.1-0.6,0.3-0.8,0.6c-0.2,0.2-0.3,0.5-0.4,0.7
		s-0.1,0.6-0.1,1v3.6h-1.1C65.5,20.8,65.5,13.9,65.5,13.9z"/>
	<path class="st1" d="M76.8,13.9l1.3,5.4l1.3-5.4h1.3l1.3,5.3l1.4-5.3h1.2l-2,6.8h-1.2L80,15.4l-1.3,5.3h-1.2l-2-6.8
		C75.5,13.9,76.8,13.9,76.8,13.9z"/>
	<path class="st1" d="M85.7,11.4h1.2v1.3h-1.2V11.4z M85.7,14h1.2v6.8h-1.2V14z"/>
	<path class="st1" d="M88.8,12h1.2v1.9H91v0.9h-1.1v4.4c0,0.2,0.1,0.4,0.2,0.5c0.1,0,0.2,0.1,0.4,0.1c0.1,0,0.1,0,0.2,0s0.1,0,0.2,0
		v0.9c-0.1,0-0.3,0.1-0.4,0.1s-0.3,0-0.5,0c-0.5,0-0.9-0.1-1.1-0.4s-0.3-0.6-0.3-1.1v-4.5h-0.9v-0.9h0.9V12H88.8z"/>
	<path class="st1" d="M92.2,11.4h1.1v3.5c0.3-0.3,0.5-0.6,0.7-0.7c0.4-0.2,0.8-0.4,1.4-0.4c1,0,1.7,0.3,2,1c0.2,0.4,0.3,0.9,0.3,1.6
		v4.4h-1.1v-4.3c0-0.5-0.1-0.9-0.2-1.1c-0.2-0.4-0.6-0.6-1.2-0.6c-0.5,0-0.9,0.2-1.3,0.5s-0.6,0.9-0.6,1.8v3.6h-1.1
		C92.2,20.7,92.2,11.4,92.2,11.4z"/>
	<path class="st1" d="M113.2,16.6c0.3,0,0.4-0.1,0.5-0.3c0-0.1,0.1-0.2,0.1-0.4c0-0.4-0.1-0.7-0.4-0.9s-0.7-0.3-1.2-0.3
		c-0.6,0-1,0.2-1.3,0.5c-0.1,0.2-0.2,0.4-0.3,0.8h-1.1c0-0.8,0.3-1.4,0.8-1.8c0.5-0.3,1.1-0.5,1.8-0.5c0.8,0,1.4,0.2,1.9,0.5
		s0.7,0.8,0.7,1.4v3.9c0,0.1,0,0.2,0.1,0.3c0,0.1,0.2,0.1,0.3,0.1c0.1,0,0.1,0,0.2,0s0.1,0,0.2,0v0.8c-0.2,0.1-0.3,0.1-0.4,0.1
		s-0.2,0-0.4,0c-0.4,0-0.7-0.1-0.9-0.4c-0.1-0.1-0.2-0.4-0.2-0.6c-0.2,0.3-0.6,0.6-1,0.8c-0.4,0.2-0.9,0.3-1.4,0.3
		c-0.6,0-1.1-0.2-1.5-0.6s-0.6-0.9-0.6-1.4c0-0.6,0.2-1.1,0.6-1.5c0.4-0.3,0.9-0.6,1.5-0.6L113.2,16.6z M110.9,19.7
		c0.2,0.2,0.5,0.3,0.9,0.3s0.8-0.1,1.2-0.3c0.6-0.3,1-0.8,1-1.5v-0.9c-0.1,0.1-0.3,0.2-0.5,0.2c-0.2,0.1-0.4,0.1-0.6,0.1l-0.7,0.1
		c-0.4,0.1-0.7,0.1-0.9,0.3c-0.4,0.2-0.5,0.5-0.5,0.9C110.5,19.2,110.6,19.5,110.9,19.7z"/>
	<path class="st1" d="M121.4,14.3c0.5,0.4,0.8,1,0.9,1.9h-1.1c-0.1-0.4-0.2-0.8-0.5-1c-0.2-0.3-0.6-0.4-1.2-0.4
		c-0.7,0-1.2,0.4-1.6,1.1c-0.2,0.5-0.3,1-0.3,1.7s0.1,1.3,0.4,1.7c0.3,0.5,0.7,0.7,1.4,0.7c0.5,0,0.8-0.1,1.1-0.4
		c0.3-0.3,0.5-0.7,0.6-1.2h1.1c-0.1,0.9-0.4,1.6-1,2c-0.5,0.4-1.2,0.6-1.9,0.6c-0.9,0-1.6-0.3-2.1-1s-0.8-1.5-0.8-2.4
		c0-1.2,0.3-2.1,0.9-2.8s1.3-1,2.2-1C120.2,13.7,120.9,13.9,121.4,14.3z"/>
	<path class="st1" d="M127.6,14.1c0.5,0.2,0.8,0.5,1,0.9c0.2,0.3,0.4,0.7,0.5,1.2c0.1,0.3,0.1,0.8,0.1,1.5h-4.9
		c0,0.7,0.2,1.2,0.5,1.7c0.3,0.4,0.8,0.6,1.4,0.6s1.1-0.2,1.4-0.6c0.2-0.2,0.3-0.5,0.4-0.8h1.1c0,0.2-0.1,0.5-0.3,0.8
		c-0.2,0.3-0.4,0.6-0.6,0.8c-0.3,0.3-0.8,0.6-1.3,0.7c-0.3,0.1-0.6,0.1-0.9,0.1c-0.8,0-1.6-0.3-2.1-0.9c-0.6-0.6-0.9-1.5-0.9-2.6
		s0.3-2,0.9-2.7s1.4-1,2.3-1C126.7,13.8,127.1,13.9,127.6,14.1z M128,16.8c0-0.5-0.2-0.9-0.3-1.2c-0.3-0.6-0.8-0.8-1.6-0.8
		c-0.5,0-1,0.2-1.3,0.6c-0.4,0.4-0.5,0.9-0.6,1.4H128z"/>
	<path class="st1" d="M130.4,11.4h1.1v3.4c0.3-0.3,0.5-0.6,0.9-0.7c0.3-0.2,0.7-0.3,1.1-0.3c0.8,0,1.5,0.3,2.1,0.9
		c0.5,0.6,0.8,1.4,0.8,2.6c0,1.1-0.3,2-0.8,2.7s-1.2,1.1-2.2,1.1c-0.5,0-1-0.1-1.3-0.4c-0.2-0.1-0.4-0.4-0.7-0.7v0.9h-1.1
		L130.4,11.4L130.4,11.4z M134.9,19.2c0.3-0.5,0.5-1.1,0.5-1.9c0-0.7-0.2-1.3-0.5-1.8s-0.8-0.7-1.4-0.7c-0.5,0-1,0.2-1.4,0.6
		s-0.6,1-0.6,1.9c0,0.6,0.1,1.2,0.2,1.6c0.3,0.7,0.9,1.1,1.7,1.1C134.1,19.9,134.6,19.7,134.9,19.2z"/>
	<path class="st1" d="M142.8,14.6c0.6,0.6,0.9,1.4,0.9,2.6c0,1.1-0.3,2-0.8,2.7s-1.4,1.1-2.5,1.1c-0.9,0-1.7-0.3-2.2-0.9
		s-0.8-1.5-0.8-2.5c0-1.1,0.3-2.1,0.9-2.7c0.6-0.7,1.3-1,2.3-1C141.4,13.7,142.2,14,142.8,14.6z M141.9,19.1
		c0.3-0.6,0.4-1.2,0.4-1.9c0-0.6-0.1-1.1-0.3-1.5c-0.3-0.6-0.9-0.9-1.6-0.9c-0.7,0-1.2,0.3-1.5,0.8c-0.3,0.5-0.5,1.2-0.5,1.9
		s0.2,1.3,0.5,1.8s0.8,0.7,1.5,0.7C141.2,20,141.8,19.7,141.9,19.1z"/>
	<path class="st1" d="M149.9,14.6c0.6,0.6,0.9,1.4,0.9,2.6c0,1.1-0.3,2-0.8,2.7s-1.4,1.1-2.5,1.1c-0.9,0-1.7-0.3-2.2-0.9
		s-0.8-1.5-0.8-2.5c0-1.1,0.3-2.1,0.9-2.7c0.6-0.7,1.3-1,2.3-1C148.7,13.7,149.4,14,149.9,14.6z M149.2,19.1
		c0.3-0.6,0.4-1.2,0.4-1.9c0-0.6-0.1-1.1-0.3-1.5c-0.3-0.6-0.9-0.9-1.6-0.9c-0.7,0-1.2,0.3-1.5,0.8c-0.3,0.5-0.5,1.2-0.5,1.9
		s0.2,1.3,0.5,1.8s0.8,0.7,1.5,0.7C148.4,20,148.9,19.7,149.2,19.1z"/>
	<path class="st1" d="M152.2,11.4h1.1v5.4l2.9-2.9h1.5l-2.6,2.5l2.8,4.3h-1.5l-2.1-3.5l-0.9,0.9v2.6h-1.1L152.2,11.4L152.2,11.4z"/>
	<path class="st1" d="M20.6,8.2v2.7c0,0-2.2-0.2-2.7,0.6c-0.3,0.5-0.2,1.5-0.2,2.8h2.9c-0.2,1.2-0.4,1.8-0.6,3.1h-2.4V26h-3.7
		c0-2.5,0-6.1,0-8.6h-1.8v-3.1h1.7C13.9,11.8,14,10.1,15,9c1-1.1,1.9-1,5.6-1"/>
	<g>
		<path class="st1" d="M104.2,20.9c-0.2,0-0.4,0-0.6,0s-0.3,0-0.6,0v-9.2h5.6v1h-4.4V16h4.1v1h-4.1V20.9z"/>
	</g>
</g>
</svg>
